<?plantuml 1.2026.2?><svg xmlns="http://www.w3.org/2000/svg" xmlns:xlink="http://www.w3.org/1999/xlink" contentStyleType="text/css" data-diagram-type="DESCRIPTION" height="1509px" preserveAspectRatio="none" style="width:2793px;height:1509px;background:#FFFFFF;" version="1.1" viewBox="0 0 2793 1509" width="2793px" zoomAndPan="magnify"><title>Dad/Johl Affidavit Lane 2026-04-04</title><defs/><g><g class="title" data-source-line="1"><text fill="#000000" font-family="sans-serif" font-size="14" font-weight="bold" lengthAdjust="spacing" textLength="237.7611" x="1271.0922" y="24.9659">Dad/Johl Affidavit Lane 2026-04-04</text></g><!--cluster Source Intake--><g class="cluster" data-qualified-name="Source Intake" data-source-line="19" id="ent0002"><rect fill="none" height="351.27" rx="2.5" ry="2.5" style="stroke:#666666;stroke-width:1;" width="521" x="965" y="47.0679"/><text fill="#000000" font-family="sans-serif" font-size="14" font-weight="bold" lengthAdjust="spacing" textLength="97.0896" x="968" y="64.0339">Source Intake</text></g><!--cluster Affidavit Coverage Builder--><g class="cluster" data-qualified-name="Affidavit Coverage Builder" data-source-line="26" id="ent0007"><rect fill="none" height="427.2" rx="2.5" ry="2.5" style="stroke:#666666;stroke-width:1;" width="1580" x="7" y="449.3379"/><text fill="#000000" font-family="sans-serif" font-size="14" font-weight="bold" lengthAdjust="spacing" textLength="183.6513" x="10" y="466.3039">Affidavit Coverage Builder</text></g><!--cluster Normalized affidavit surface--><g class="cluster" data-qualified-name="Affidavit Coverage Builder.Normalized affidavit surface" data-source-line="30" id="ent0010"><rect fill="none" height="93.07" rx="2.5" ry="2.5" style="stroke:#666666;stroke-width:1;" width="1532" x="31" y="759.4679"/><text fill="#000000" font-family="sans-serif" font-size="14" font-weight="bold" lengthAdjust="spacing" textLength="198.8413" x="34" y="776.4339">Normalized affidavit surface</text></g><!--cluster Persisted Receiver--><g class="cluster" data-qualified-name="Persisted Receiver" data-source-line="39" id="ent0016"><rect fill="none" height="351.34" rx="2.5" ry="2.5" style="stroke:#666666;stroke-width:1;" width="296" x="1611" y="759.4679"/><text fill="#000000" font-family="sans-serif" font-size="14" font-weight="bold" lengthAdjust="spacing" textLength="128.3935" x="1614" y="776.4339">Persisted Receiver</text></g><!--cluster Inspection and Derived Outputs--><g class="cluster" data-qualified-name="Inspection and Derived Outputs" data-source-line="44" id="ent0019"><rect fill="none" height="115.14" rx="2.5" ry="2.5" style="stroke:#666666;stroke-width:1;" width="1143" x="1594" y="1161.8079"/><text fill="#000000" font-family="sans-serif" font-size="14" font-weight="bold" lengthAdjust="spacing" textLength="222.9211" x="1597" y="1178.7739">Inspection and Derived Outputs</text></g><!--cluster Current Quality Boundary--><g class="cluster" data-qualified-name="Current Quality Boundary" data-source-line="51" id="ent0024"><rect fill="none" height="93.07" rx="2.5" ry="2.5" style="stroke:#666666;stroke-width:1;" width="756" x="814" y="1172.8379"/><text fill="#000000" font-family="sans-serif" font-size="14" font-weight="bold" lengthAdjust="spacing" textLength="180.1513" x="817" y="1189.8039">Current Quality Boundary</text></g><!--entity DadAff--><g class="entity" data-qualified-name="Source Intake.DadAff" data-source-line="20" id="ent0003"><rect fill="#F1F1F1" height="61.1358" rx="2.5" ry="2.5" style="stroke:#181818;stroke-width:0.5;" width="193.6034" x="1276.2" y="85.0679"/><polygon fill="#F1F1F1" points="1452.8034,90.0679,1452.8034,104.0679,1464.8034,104.0679,1464.8034,96.0679,1458.8034,90.0679,1452.8034,90.0679" style="stroke:#181818;stroke-width:0.5;"/><line style="stroke:#181818;stroke-width:0.5;" x1="1458.8034" x2="1458.8034" y1="90.0679" y2="96.0679"/><line style="stroke:#181818;stroke-width:0.5;" x1="1464.8034" x2="1458.8034" y1="96.0679" y2="96.0679"/><text fill="#000000" font-family="sans-serif" font-size="14" lengthAdjust="spacing" textLength="163.6034" x="1286.2" y="113.0339">Dad affidavit Google Doc</text><text fill="#000000" font-family="sans-serif" font-size="14" lengthAdjust="spacing" textLength="136.0375" x="1286.2" y="132.1018">or affidavit draft text</text></g><!--entity JohlResp--><g class="entity" data-qualified-name="Source Intake.JohlResp" data-source-line="21" id="ent0004"><rect fill="#F1F1F1" height="61.1358" rx="2.5" ry="2.5" style="stroke:#181818;stroke-width:0.5;" width="259.6551" x="981.17" y="85.0679"/><polygon fill="#F1F1F1" points="1223.8251,90.0679,1223.8251,104.0679,1235.8251,104.0679,1235.8251,96.0679,1229.8251,90.0679,1223.8251,90.0679" style="stroke:#181818;stroke-width:0.5;"/><line style="stroke:#181818;stroke-width:0.5;" x1="1229.8251" x2="1229.8251" y1="90.0679" y2="96.0679"/><line style="stroke:#181818;stroke-width:0.5;" x1="1235.8251" x2="1229.8251" y1="96.0679" y2="96.0679"/><text fill="#000000" font-family="sans-serif" font-size="14" lengthAdjust="spacing" textLength="168.8533" x="991.17" y="113.0339">Johl response Google Doc</text><text fill="#000000" font-family="sans-serif" font-size="14" lengthAdjust="spacing" textLength="229.6551" x="991.17" y="132.1018">or contested narrative source rows</text></g><!--entity GDocs--><g class="entity" data-qualified-name="Source Intake.GDocs" data-source-line="22" id="ent0005"><rect fill="#F1F1F1" height="39.0679" rx="2.5" ry="2.5" style="stroke:#666666;stroke-width:0.5;" width="347.8087" x="1092.1" y="225.2079"/><text fill="#000000" font-family="sans-serif" font-size="14" lengthAdjust="spacing" textLength="327.8087" x="1102.1" y="250.1739">build_google_docs_contested_narrative_review.py</text></g><!--entity TextUnits--><g class="entity" data-qualified-name="Source Intake.TextUnits" data-source-line="23" id="ent0006"><rect fill="#F1F1F1" height="39.0679" rx="2.5" ry="2.5" style="stroke:#666666;stroke-width:0.5;" width="317.4289" x="1115.29" y="343.2679"/><text fill="#000000" font-family="sans-serif" font-size="14" lengthAdjust="spacing" textLength="297.4289" x="1125.29" y="368.2339">build_fact_intake_payload_from_text_units(...)</text></g><!--entity Writer--><g class="entity" data-qualified-name="Affidavit Coverage Builder.Writer" data-source-line="27" id="ent0008"><rect fill="#F1F1F1" height="39.0679" rx="2.5" ry="2.5" style="stroke:#666666;stroke-width:0.5;" width="248.6331" x="1284.68" y="487.3379"/><text fill="#000000" font-family="sans-serif" font-size="14" lengthAdjust="spacing" textLength="228.6331" x="1294.68" y="512.3039">write_affidavit_coverage_review(...)</text></g><!--entity Builder--><g class="entity" data-qualified-name="Affidavit Coverage Builder.Builder" data-source-line="28" id="ent0009"><rect fill="#F1F1F1" height="39.0679" rx="2.5" ry="2.5" style="stroke:#666666;stroke-width:0.5;" width="248.3811" x="1284.81" y="605.4079"/><text fill="#000000" font-family="sans-serif" font-size="14" lengthAdjust="spacing" textLength="228.3811" x="1294.81" y="630.3739">build_affidavit_coverage_review(...)</text></g><!--entity Text--><g class="entity" data-qualified-name="Affidavit Coverage Builder.Normalized affidavit surface.Text" data-source-line="31" id="ent0011"><rect fill="#F1F1F1" height="39.0679" rx="2.5" ry="2.5" style="stroke:#666666;stroke-width:0.5;" width="237.5172" x="376.24" y="797.4679"/><text fill="#000000" font-family="sans-serif" font-size="14" lengthAdjust="spacing" textLength="217.5172" x="386.24" y="822.4339">affidavit_normalized_surface.text</text></g><!--entity Matching--><g class="entity" data-qualified-name="Affidavit Coverage Builder.Normalized affidavit surface.Matching" data-source-line="32" id="ent0012"><rect fill="#F1F1F1" height="39.0679" rx="2.5" ry="2.5" style="stroke:#666666;stroke-width:0.5;" width="274.351" x="648.82" y="797.4679"/><text fill="#000000" font-family="sans-serif" font-size="14" lengthAdjust="spacing" textLength="254.351" x="658.82" y="822.4339">affidavit_normalized_surface.matching</text></g><!--entity Semantics--><g class="entity" data-qualified-name="Affidavit Coverage Builder.Normalized affidavit surface.Semantics" data-source-line="33" id="ent0013"><rect fill="#F1F1F1" height="39.0679" rx="2.5" ry="2.5" style="stroke:#666666;stroke-width:0.5;" width="278.397" x="957.8" y="797.4679"/><text fill="#000000" font-family="sans-serif" font-size="14" lengthAdjust="spacing" textLength="258.397" x="967.8" y="822.4339">affidavit_normalized_surface.semantics</text></g><!--entity ReviewHints--><g class="entity" data-qualified-name="Affidavit Coverage Builder.Normalized affidavit surface.ReviewHints" data-source-line="34" id="ent0014"><rect fill="#F1F1F1" height="39.0679" rx="2.5" ry="2.5" style="stroke:#666666;stroke-width:0.5;" width="294.3009" x="46.85" y="797.4679"/><text fill="#000000" font-family="sans-serif" font-size="14" lengthAdjust="spacing" textLength="274.3009" x="56.85" y="822.4339">affidavit_normalized_surface.review_hints</text></g><!--entity Structural--><g class="entity" data-qualified-name="Affidavit Coverage Builder.Normalized affidavit surface.Structural" data-source-line="35" id="ent0015"><rect fill="#F1F1F1" height="39.0679" rx="2.5" ry="2.5" style="stroke:#666666;stroke-width:0.5;" width="275.975" x="1271.01" y="797.4679"/><text fill="#000000" font-family="sans-serif" font-size="14" lengthAdjust="spacing" textLength="255.975" x="1281.01" y="822.4339">affidavit_normalized_surface.structural</text></g><!--entity SQLite--><g class="entity" data-qualified-name="Persisted Receiver.SQLite" data-source-line="40" id="ent0017"><path d="M1626.85,999.5379 C1626.85,989.5379 1743.0046,989.5379 1743.0046,989.5379 C1743.0046,989.5379 1859.1592,989.5379 1859.1592,999.5379 L1859.1592,1084.8096 C1859.1592,1094.8096 1743.0046,1094.8096 1743.0046,1094.8096 C1743.0046,1094.8096 1626.85,1094.8096 1626.85,1084.8096 L1626.85,999.5379" fill="#F1F1F1" style="stroke:#181818;stroke-width:0.5;"/><path d="M1626.85,999.5379 C1626.85,1009.5379 1743.0046,1009.5379 1743.0046,1009.5379 C1743.0046,1009.5379 1859.1592,1009.5379 1859.1592,999.5379" fill="none" style="stroke:#181818;stroke-width:0.5;"/><text fill="#000000" font-family="sans-serif" font-size="14" lengthAdjust="spacing" textLength="42.5178" x="1636.85" y="1028.5039">SQLite</text><text fill="#000000" font-family="sans-serif" font-size="14" lengthAdjust="spacing" textLength="150.5834" x="1636.85" y="1047.5718">contested_review_runs</text><text fill="#000000" font-family="sans-serif" font-size="14" lengthAdjust="spacing" textLength="212.3092" x="1636.85" y="1066.6397">contested_review_affidavit_rows</text><text fill="#000000" font-family="sans-serif" font-size="14" lengthAdjust="spacing" textLength="203.1952" x="1636.85" y="1085.7076">contested_review_source_rows</text></g><!--entity Persist--><g class="entity" data-qualified-name="Persisted Receiver.Persist" data-source-line="41" id="ent0018"><rect fill="#F1F1F1" height="39.0679" rx="2.5" ry="2.5" style="stroke:#666666;stroke-width:0.5;" width="264.369" x="1626.82" y="797.4679"/><text fill="#000000" font-family="sans-serif" font-size="14" lengthAdjust="spacing" textLength="244.369" x="1636.82" y="822.4339">persist_contested_affidavit_review(...)</text></g><!--entity Query--><g class="entity" data-qualified-name="Inspection and Derived Outputs.Query" data-source-line="45" id="ent0020"><rect fill="#F1F1F1" height="39.0679" rx="2.5" ry="2.5" style="stroke:#666666;stroke-width:0.5;" width="262.927" x="1609.54" y="1210.8379"/><text fill="#000000" font-family="sans-serif" font-size="14" lengthAdjust="spacing" textLength="242.927" x="1619.54" y="1235.8039">query_fact_review.py contested-rows</text></g><!--entity JsonArtifact--><g class="entity" data-qualified-name="Inspection and Derived Outputs.JsonArtifact" data-source-line="46" id="ent0021"><rect fill="#F1F1F1" height="61.1358" rx="2.5" ry="2.5" style="stroke:#181818;stroke-width:0.5;" width="251.9411" x="1907.03" y="1199.8079"/><polygon fill="#F1F1F1" points="2141.9711,1204.8079,2141.9711,1218.8079,2153.9711,1218.8079,2153.9711,1210.8079,2147.9711,1204.8079,2141.9711,1204.8079" style="stroke:#181818;stroke-width:0.5;"/><line style="stroke:#181818;stroke-width:0.5;" x1="2147.9711" x2="2147.9711" y1="1204.8079" y2="1210.8079"/><line style="stroke:#181818;stroke-width:0.5;" x1="2153.9711" x2="2147.9711" y1="1210.8079" y2="1210.8079"/><text fill="#000000" font-family="sans-serif" font-size="14" lengthAdjust="spacing" textLength="87.8497" x="1917.03" y="1227.7739">Derived JSON</text><text fill="#000000" font-family="sans-serif" font-size="14" lengthAdjust="spacing" textLength="221.9411" x="1917.03" y="1246.8418">affidavit_coverage_review_v1.json</text></g><!--entity MdArtifact--><g class="entity" data-qualified-name="Inspection and Derived Outputs.MdArtifact" data-source-line="47" id="ent0022"><rect fill="#F1F1F1" height="61.1358" rx="2.5" ry="2.5" style="stroke:#181818;stroke-width:0.5;" width="312.2669" x="2193.87" y="1199.8079"/><polygon fill="#F1F1F1" points="2489.1369,1204.8079,2489.1369,1218.8079,2501.1369,1218.8079,2501.1369,1210.8079,2495.1369,1204.8079,2489.1369,1204.8079" style="stroke:#181818;stroke-width:0.5;"/><line style="stroke:#181818;stroke-width:0.5;" x1="2495.1369" x2="2495.1369" y1="1204.8079" y2="1210.8079"/><line style="stroke:#181818;stroke-width:0.5;" x1="2501.1369" x2="2495.1369" y1="1210.8079" y2="1210.8079"/><text fill="#000000" font-family="sans-serif" font-size="14" lengthAdjust="spacing" textLength="125.3135" x="2203.87" y="1227.7739">Derived Markdown</text><text fill="#000000" font-family="sans-serif" font-size="14" lengthAdjust="spacing" textLength="282.2669" x="2203.87" y="1246.8418">affidavit_coverage_review_v1.summary.md</text></g><!--entity Metrics--><g class="entity" data-qualified-name="Inspection and Derived Outputs.Metrics" data-source-line="48" id="ent0023"><rect fill="#F1F1F1" height="61.1358" rx="2.5" ry="2.5" style="stroke:#181818;stroke-width:0.5;" width="180.5694" x="2540.72" y="1199.8079"/><polygon fill="#F1F1F1" points="2704.2894,1204.8079,2704.2894,1218.8079,2716.2894,1218.8079,2716.2894,1210.8079,2710.2894,1204.8079,2704.2894,1204.8079" style="stroke:#181818;stroke-width:0.5;"/><line style="stroke:#181818;stroke-width:0.5;" x1="2710.2894" x2="2710.2894" y1="1204.8079" y2="1210.8079"/><line style="stroke:#181818;stroke-width:0.5;" x1="2716.2894" x2="2710.2894" y1="1210.8079" y2="1210.8079"/><text fill="#000000" font-family="sans-serif" font-size="14" lengthAdjust="spacing" textLength="128.6455" x="2550.72" y="1227.7739">Normalized metrics</text><text fill="#000000" font-family="sans-serif" font-size="14" lengthAdjust="spacing" textLength="150.5694" x="2550.72" y="1246.8418">normalized_metrics_v1</text></g><!--entity DupRoot--><g class="entity" data-qualified-name="Current Quality Boundary.DupRoot" data-source-line="52" id="ent0025"><rect fill="#F1F1F1" height="39.0679" rx="2.5" ry="2.5" style="stroke:#666666;stroke-width:0.5;" width="183.4494" x="830.28" y="1210.8379"/><text fill="#000000" font-family="sans-serif" font-size="14" lengthAdjust="spacing" textLength="163.4494" x="840.28" y="1235.8039">Duplicate-root clustering</text></g><!--entity SiblingLeaf--><g class="entity" data-qualified-name="Current Quality Boundary.SiblingLeaf" data-source-line="53" id="ent0026"><rect fill="#F1F1F1" height="39.0679" rx="2.5" ry="2.5" style="stroke:#666666;stroke-width:0.5;" width="242.0531" x="1048.97" y="1210.8379"/><text fill="#000000" font-family="sans-serif" font-size="14" lengthAdjust="spacing" textLength="222.0531" x="1058.97" y="1235.8039">Same-incident sibling-leaf routing</text></g><!--entity SideLocal--><g class="entity" data-qualified-name="Current Quality Boundary.SideLocal" data-source-line="54" id="ent0027"><rect fill="#F1F1F1" height="39.0679" rx="2.5" ry="2.5" style="stroke:#666666;stroke-width:0.5;" width="228.0252" x="1325.99" y="1210.8379"/><text fill="#000000" font-family="sans-serif" font-size="14" lengthAdjust="spacing" textLength="208.0252" x="1335.99" y="1235.8039">Side-local wording preservation</text></g><g class="entity" data-qualified-name="GMN48" data-source-line="83" id="ent0049"><path d="M2386.97,992.9079 L2386.97,1038.1679 L1859.49,1042.1679 L2386.97,1046.1679 L2386.97,1091.438 A0,0 0 0 0 2386.97,1091.438 L2733.0222,1091.438 A0,0 0 0 0 2733.0222,1091.438 L2733.0222,1002.9079 L2723.0222,992.9079 L2386.97,992.9079 A0,0 0 0 0 2386.97,992.9079" fill="#FEFFDD" style="stroke:#888888;stroke-width:0.5;"/><path d="M2723.0222,992.9079 L2723.0222,1002.9079 L2733.0222,1002.9079 L2723.0222,992.9079" fill="#FEFFDD" style="stroke:#888888;stroke-width:0.5;"/><text fill="#000000" font-family="sans-serif" font-size="13" lengthAdjust="spacing" textLength="244.9332" x="2392.97" y="1011.8049">Current live Dad/Johl loop is SQLite-first.</text><text fill="#000000" font-family="sans-serif" font-size="13" lengthAdjust="spacing" textLength="325.0522" x="2392.97" y="1029.5109">Example runtime seams noted in compacted context:</text><text fill="#000000" font-family="sans-serif" font-size="13" lengthAdjust="spacing" textLength="157.3391" x="2392.97" y="1047.217">- contested review run ids</text><text fill="#000000" font-family="sans-serif" font-size="13" lengthAdjust="spacing" textLength="174.1612" x="2392.97" y="1064.923">- /tmp SQLite inspection DBs</text><text fill="#000000" font-family="sans-serif" font-size="13" lengthAdjust="spacing" textLength="215.0332" x="2392.97" y="1082.629">- query_fact_review contested-rows</text></g><g class="entity" data-qualified-name="GMN51" data-source-line="91" id="ent0052"><path d="M2387.06,723.4779 L2387.06,910.5381 L2786.9454,910.5381 L2786.9454,733.4779 L2776.9454,723.4779 L2387.06,723.4779" fill="#FEFFDD" style="stroke:#888888;stroke-width:0.5;"/><path d="M2776.9454,723.4779 L2776.9454,733.4779 L2786.9454,733.4779 L2776.9454,723.4779" fill="#FEFFDD" style="stroke:#888888;stroke-width:1;"/><text fill="#000000" font-family="sans-serif" font-size="13" lengthAdjust="spacing" textLength="378.8854" x="2393.06" y="742.3749">Current implementation leaves behind the normalized facade:</text><text fill="#000000" font-family="sans-serif" font-size="13" lengthAdjust="spacing" textLength="195.1172" x="2393.06" y="760.0809">- affidavit_text_normalization.py</text><text fill="#000000" font-family="sans-serif" font-size="13" lengthAdjust="spacing" textLength="192.7252" x="2393.06" y="777.787">- affidavit_reconciliation_text.py</text><text fill="#000000" font-family="sans-serif" font-size="13" lengthAdjust="spacing" textLength="144.9371" x="2393.06" y="795.493">- affidavit_claim_root.py</text><text fill="#000000" font-family="sans-serif" font-size="13" lengthAdjust="spacing" textLength="209.2222" x="2393.06" y="813.199">- affidavit_candidate_alignment.py</text><text fill="#000000" font-family="sans-serif" font-size="13" lengthAdjust="spacing" textLength="212.2902" x="2393.06" y="830.905">- affidavit_candidate_arbitration.py</text><text fill="#000000" font-family="sans-serif" font-size="13" lengthAdjust="spacing" textLength="204.6852" x="2393.06" y="848.611">- affidavit_response_semantics.py</text><text fill="#000000" font-family="sans-serif" font-size="13" lengthAdjust="spacing" textLength="178.8412" x="2393.06" y="866.317">- affidavit_extraction_hints.py</text><text fill="#000000" font-family="sans-serif" font-size="13" lengthAdjust="spacing" textLength="201.2792" x="2393.06" y="884.0231">- affidavit_structural_sentence.py</text><text fill="#000000" font-family="sans-serif" font-size="13" lengthAdjust="spacing" textLength="183.4171" x="2393.06" y="901.7291">- affidavit_lexical_heuristics.py</text></g><g class="entity" data-qualified-name="GMN54" data-source-line="104" id="ent0055"><path d="M992.82,1323.9479 L992.82,1404.772 A0,0 0 0 0 992.82,1404.772 L1347.1793,1404.772 A0,0 0 0 0 1347.1793,1404.772 L1347.1793,1333.9479 L1337.1793,1323.9479 L1174,1323.9479 L1170,1250.2879 L1166,1323.9479 L992.82,1323.9479 A0,0 0 0 0 992.82,1323.9479" fill="#FEFFDD" style="stroke:#888888;stroke-width:0.5;"/><path d="M1337.1793,1323.9479 L1337.1793,1333.9479 L1347.1793,1333.9479 L1337.1793,1323.9479" fill="#FEFFDD" style="stroke:#888888;stroke-width:0.5;"/><text fill="#000000" font-family="sans-serif" font-size="13" lengthAdjust="spacing" textLength="111.8001" x="998.82" y="1342.8449">Current open gap:</text><text fill="#000000" font-family="sans-serif" font-size="13" lengthAdjust="spacing" textLength="330.3823" x="998.82" y="1360.5509">duplicate-root and same-incident sibling-leaf handling</text><text fill="#000000" font-family="sans-serif" font-size="13" lengthAdjust="spacing" textLength="333.3593" x="998.82" y="1378.257">across Dad-side and Johl-side claims without flattening</text><text fill="#000000" font-family="sans-serif" font-size="13" lengthAdjust="spacing" textLength="114.8941" x="998.82" y="1395.963">side-local wording.</text></g><!--link DadAff to GDocs--><g class="link" data-entity-1="ent0003" data-entity-2="ent0005" data-link-type="dependency" data-source-line="57" id="lnk28"><path d="M1331.13,146.4979 C1320.51,155.2979 1309.66,165.4679 1301,176.2079 C1289.06,191.0079 1281.8412,205.002 1275.7412,219.252" fill="none" id="DadAff-to-GDocs" style="stroke:#444444;stroke-width:1;"/><polygon fill="#444444" points="1273.38,224.7679,1280.599,218.0682,1275.3476,220.1714,1273.2445,214.92,1273.38,224.7679" style="stroke:#444444;stroke-width:1;"/><text fill="#000000" font-family="sans-serif" font-size="13" lengthAdjust="spacing" textLength="164.7491" x="1302" y="191.1049">fetch / extract affidavit text</text></g><!--link JohlResp to GDocs--><g class="link" data-entity-1="ent0004" data-entity-2="ent0005" data-link-type="dependency" data-source-line="58" id="lnk29"><path d="M1060.92,146.4379 C1042.82,160.9479 1029.76,178.7679 1043,195.2079 C1053.32,208.0079 1074.5351,216.2962 1106.4051,223.4362" fill="none" id="JohlResp-to-GDocs" style="stroke:#444444;stroke-width:1;"/><polygon fill="#444444" points="1112.26,224.7479,1104.3522,218.8771,1107.3809,223.6548,1102.6032,226.6836,1112.26,224.7479" style="stroke:#444444;stroke-width:1;"/><text fill="#000000" font-family="sans-serif" font-size="13" lengthAdjust="spacing" textLength="235.3912" x="1044" y="191.1049">fetch / extract contested response text</text></g><!--link GDocs to TextUnits--><g class="link" data-entity-1="ent0005" data-entity-2="ent0006" data-link-type="dependency" data-source-line="59" id="lnk30"><path d="M1267.3,264.6479 C1268.79,286.2279 1270.7967,315.3422 1272.2867,336.9222" fill="none" id="GDocs-to-TextUnits" style="stroke:#444444;stroke-width:1;"/><polygon fill="#444444" points="1272.7,342.9079,1276.0706,333.6538,1272.3556,337.9198,1268.0896,334.2048,1272.7,342.9079" style="stroke:#444444;stroke-width:1;"/><text fill="#000000" font-family="sans-serif" font-size="13" lengthAdjust="spacing" textLength="146.0681" x="1271.48" y="309.1649">grouped response units</text></g><!--link TextUnits to Writer--><g class="link" data-entity-1="ent0006" data-entity-2="ent0008" data-link-type="dependency" data-source-line="60" id="lnk31"><path d="M1291.93,382.6679 C1317.75,409.8479 1361.0066,455.3688 1386.8666,482.5788" fill="none" id="TextUnits-to-Writer" style="stroke:#444444;stroke-width:1;"/><polygon fill="#444444" points="1391,486.9279,1387.6994,477.6486,1387.5555,483.3036,1381.9005,483.1598,1391,486.9279" style="stroke:#444444;stroke-width:1;"/><text fill="#000000" font-family="sans-serif" font-size="13" lengthAdjust="spacing" textLength="95.2641" x="1338.45" y="429.2349">source_payload</text></g><!--link DadAff to Writer--><g class="link" data-entity-1="ent0003" data-entity-2="ent0008" data-link-type="dependency" data-source-line="61" id="lnk32"><path d="M1442.7,146.3879 C1454.04,154.3879 1464.27,164.2279 1471,176.2079 C1530.52,282.0379 1455.0119,428.9921 1423.8119,481.8021" fill="none" id="DadAff-to-Writer" style="stroke:#444444;stroke-width:1;"/><polygon fill="#444444" points="1420.76,486.9679,1428.7818,481.2538,1423.3033,482.6631,1421.894,477.1846,1420.76,486.9679" style="stroke:#444444;stroke-width:1;"/><text fill="#000000" font-family="sans-serif" font-size="13" lengthAdjust="spacing" textLength="78.897" x="1492.11" y="309.1649">affidavit_text</text></g><!--link Writer to Builder--><g class="link" data-entity-1="ent0008" data-entity-2="ent0009" data-link-type="dependency" data-source-line="62" id="lnk33"><path d="M1409,526.7779 C1409,548.3679 1409,577.4679 1409,599.0479" fill="none" id="Writer-to-Builder" style="stroke:#444444;stroke-width:1;"/><polygon fill="#444444" points="1409,605.0479,1413,596.0479,1409,600.0479,1405,596.0479,1409,605.0479" style="stroke:#444444;stroke-width:1;"/><text fill="#000000" font-family="sans-serif" font-size="13" lengthAdjust="spacing" textLength="116.3501" x="1410" y="571.3049">runtime entrypoint</text></g><!--link Builder to Text--><g class="link" data-entity-1="ent0009" data-entity-2="ent0011" data-link-type="dependency" data-source-line="64" id="lnk34"><path d="M1284.49,634.4179 C1095.96,648.4579 747.68,679.4179 631,723.4779 C585.85,740.5279 545.587,771.4732 520.347,793.2032" fill="none" id="Builder-to-Text" style="stroke:#444444;stroke-width:1;"/><polygon fill="#444444" points="515.8,797.1179,525.2303,794.2772,519.5892,793.8557,520.0107,788.2146,515.8,797.1179" style="stroke:#444444;stroke-width:1;"/></g><!--link Builder to Matching--><g class="link" data-entity-1="ent0009" data-entity-2="ent0012" data-link-type="dependency" data-source-line="65" id="lnk35"><path d="M1284.78,640.1879 C1188.31,653.9879 1052.49,679.4479 940,723.4779 C891.49,742.4579 845.6186,772.5552 816.1886,793.6252" fill="none" id="Builder-to-Matching" style="stroke:#444444;stroke-width:1;"/><polygon fill="#444444" points="811.31,797.1179,820.9564,795.1312,815.3755,794.2073,816.2994,788.6264,811.31,797.1179" style="stroke:#444444;stroke-width:1;"/></g><!--link Builder to Semantics--><g class="link" data-entity-1="ent0009" data-entity-2="ent0013" data-link-type="dependency" data-source-line="66" id="lnk36"><path d="M1377.94,644.8579 C1318.14,681.2879 1192.7639,757.6661 1133.0539,794.0461" fill="none" id="Builder-to-Semantics" style="stroke:#444444;stroke-width:1;"/><polygon fill="#444444" points="1127.93,797.1679,1137.697,795.901,1132.1999,794.5664,1133.5346,789.0692,1127.93,797.1679" style="stroke:#444444;stroke-width:1;"/></g><!--link Builder to ReviewHints--><g class="link" data-entity-1="ent0009" data-entity-2="ent0014" data-link-type="dependency" data-source-line="67" id="lnk37"><path d="M1284.68,630.5279 C1045.03,640.4979 527.9,667.8779 359,723.4779 C306.44,740.7779 256.5179,771.9795 225.1679,793.6195" fill="none" id="Builder-to-ReviewHints" style="stroke:#444444;stroke-width:1;"/><polygon fill="#444444" points="220.23,797.0279,229.9091,795.2071,224.3449,794.1875,225.3645,788.6233,220.23,797.0279" style="stroke:#444444;stroke-width:1;"/></g><!--link Builder to Structural--><g class="link" data-entity-1="ent0009" data-entity-2="ent0015" data-link-type="dependency" data-source-line="68" id="lnk38"><path d="M1409,644.8579 C1409,681.2879 1409,754.7879 1409,791.1679" fill="none" id="Builder-to-Structural" style="stroke:#444444;stroke-width:1;"/><polygon fill="#444444" points="1409,797.1679,1413,788.1679,1409,792.1679,1405,788.1679,1409,797.1679" style="stroke:#444444;stroke-width:1;"/></g><!--link Builder to Persist--><g class="link" data-entity-1="ent0009" data-entity-2="ent0018" data-link-type="dependency" data-source-line="70" id="lnk39"><path d="M1443.84,644.8579 C1510.84,681.2479 1651.6775,757.7242 1718.7675,794.1642" fill="none" id="Builder-to-Persist" style="stroke:#444444;stroke-width:1;"/><polygon fill="#444444" points="1724.04,797.0279,1718.0405,789.2173,1719.6463,794.6415,1714.2221,796.2473,1724.04,797.0279" style="stroke:#444444;stroke-width:1;"/><text fill="#000000" font-family="sans-serif" font-size="13" lengthAdjust="spacing" textLength="228.0462" x="1533.2" y="689.3749">normalized contested review payload</text></g><!--link Persist to SQLite--><g class="link" data-entity-1="ent0018" data-entity-2="ent0017" data-link-type="dependency" data-source-line="71" id="lnk40"><path d="M1757.64,837.0379 C1755.24,870.4479 1750.6289,934.7533 1747.1389,983.4533" fill="none" id="Persist-to-SQLite" style="stroke:#444444;stroke-width:1;"/><polygon fill="#444444" points="1746.71,989.4379,1751.3431,980.7469,1747.0674,984.4507,1743.3636,980.175,1746.71,989.4379" style="stroke:#444444;stroke-width:1;"/><text fill="#000000" font-family="sans-serif" font-size="13" lengthAdjust="spacing" textLength="149.6691" x="1751.04" y="955.4349">primary working surface</text></g><!--link Builder to JsonArtifact--><g class="link" data-entity-1="ent0009" data-entity-2="ent0021" data-link-type="dependency" data-source-line="73" id="lnk41"><path d="M1533.51,633.2079 C1664.82,643.7179 1859.22,668.3379 1907,723.4779 C1977.11,804.3879 1929.45,855.5679 1955,959.5379 C1976.65,1047.6179 2006.2125,1144.4235 2021.7525,1193.9135" fill="none" id="Builder-to-JsonArtifact" style="stroke:#444444;stroke-width:1;"/><polygon fill="#444444" points="2023.55,1199.6379,2024.6701,1189.853,2022.0521,1194.8676,2017.0375,1192.2496,2023.55,1199.6379" style="stroke:#444444;stroke-width:1;"/><text fill="#000000" font-family="sans-serif" font-size="13" lengthAdjust="spacing" textLength="146.9911" x="1956" y="955.4349">optional --write-artifacts</text></g><!--link Builder to MdArtifact--><g class="link" data-entity-1="ent0009" data-entity-2="ent0022" data-link-type="dependency" data-source-line="74" id="lnk42"><path d="M1533.53,626.8179 C1625.53,630.4479 1752.85,641.7979 1860,674.4779 C1904.69,688.1079 1917.12,693.5479 1953,723.4779 C1976.28,742.8979 2242.3086,1088.9269 2323.4186,1194.6869" fill="none" id="Builder-to-MdArtifact" style="stroke:#444444;stroke-width:1;"/><polygon fill="#444444" points="2327.07,1199.4479,2324.767,1189.8721,2324.0272,1195.4804,2318.4189,1194.7406,2327.07,1199.4479" style="stroke:#444444;stroke-width:1;"/><text fill="#000000" font-family="sans-serif" font-size="13" lengthAdjust="spacing" textLength="146.9911" x="2140.66" y="955.4349">optional --write-artifacts</text></g><!--link Builder to Metrics--><g class="link" data-entity-1="ent0009" data-entity-2="ent0023" data-link-type="dependency" data-source-line="75" id="lnk43"><path d="M1533.52,629.8279 C1635.88,634.9579 1784.16,646.8679 1911,674.4779 C2113.88,718.6379 2174.94,771.1379 2295,940.5379 C2344.6,1010.5279 2303.37,1063.5579 2369,1118.8079 C2423.03,1164.2879 2459.47,1125.1079 2524,1153.8079 C2549.97,1165.3579 2571.3756,1179.9365 2591.3056,1195.6265" fill="none" id="Builder-to-Metrics" style="stroke:#444444;stroke-width:1;"/><polygon fill="#444444" points="2596.02,1199.3379,2591.4227,1190.6279,2592.0914,1196.2451,2586.4742,1196.9137,2596.02,1199.3379" style="stroke:#444444;stroke-width:1;"/><text fill="#000000" font-family="sans-serif" font-size="13" lengthAdjust="spacing" textLength="210.5482" x="2307.57" y="955.4349">review geometry / queue pressure</text></g><!--link SQLite to Query--><g class="link" data-entity-1="ent0017" data-entity-2="ent0020" data-link-type="dependency" data-source-line="77" id="lnk44"><path d="M1739.42,1094.9079 C1738.83,1105.4579 1738.31,1116.4879 1738,1126.8079 C1737.13,1156.0079 1738.2565,1183.8978 1739.4365,1204.4778" fill="none" id="SQLite-to-Query" style="stroke:#444444;stroke-width:1;"/><polygon fill="#444444" points="1739.78,1210.4679,1743.2583,1201.2537,1739.4938,1205.4761,1735.2714,1201.7116,1739.78,1210.4679" style="stroke:#444444;stroke-width:1;"/><text fill="#000000" font-family="sans-serif" font-size="13" lengthAdjust="spacing" textLength="192.6342" x="1739" y="1141.7049">inspect persisted Dad/Johl rows</text></g><!--link SQLite to DupRoot--><g class="link" data-entity-1="ent0017" data-entity-2="ent0025" data-link-type="dependency" data-source-line="78" id="lnk45"><path d="M1626.61,1045.3579 C1482.06,1051.5979 1230.22,1074.1979 1031,1153.8079 C997.22,1167.3079 968.1832,1189.0439 947.4132,1206.6839" fill="none" id="SQLite-to-DupRoot" style="stroke:#444444;stroke-width:1;"/><polygon fill="#444444" points="942.84,1210.5679,952.2892,1207.7907,946.651,1207.3312,947.1105,1201.6931,942.84,1210.5679" style="stroke:#444444;stroke-width:1;"/></g><!--link SQLite to SiblingLeaf--><g class="link" data-entity-1="ent0017" data-entity-2="ent0026" data-link-type="dependency" data-source-line="79" id="lnk46"><path d="M1626.49,1064.4779 C1537.43,1082.7379 1412.59,1112.6379 1308,1153.8079 C1268.73,1169.2679 1231.7018,1190.4302 1204.4618,1207.2902" fill="none" id="SQLite-to-SiblingLeaf" style="stroke:#444444;stroke-width:1;"/><polygon fill="#444444" points="1199.36,1210.4479,1209.1179,1209.1125,1203.6115,1207.8165,1204.9076,1202.3101,1199.36,1210.4479" style="stroke:#444444;stroke-width:1;"/></g><!--link SQLite to SideLocal--><g class="link" data-entity-1="ent0017" data-entity-2="ent0027" data-link-type="dependency" data-source-line="80" id="lnk47"><path d="M1658.19,1095.2879 C1595.69,1133.6979 1519.3822,1180.5969 1475.8122,1207.3669" fill="none" id="SQLite-to-SideLocal" style="stroke:#444444;stroke-width:1;"/><polygon fill="#444444" points="1470.7,1210.5079,1480.4622,1209.2046,1474.9601,1207.8904,1476.2743,1202.3883,1470.7,1210.5079" style="stroke:#444444;stroke-width:1;"/></g><!--link ReviewHints to GMN51--><g class="link" data-entity-1="ent0014" data-entity-2="ent0052" data-link-type="association" data-source-line="91" id="lnk53"><path d="M212.41,797.1679 C242.94,765.9079 307.53,706.4479 376.5,683.9779 C480.35,650.1479 2236.65,657.0479 2342.5,683.9779 C2376.34,692.5879 2410.55,706.9279 2442.23,723.0879" fill="none" id="ReviewHints-GMN51" style="stroke:#444444;stroke-width:1;stroke-dasharray:7,7;"/></g><g class="legend" data-source-line="13"><rect fill="none" height="67.2038" rx="7.5" ry="7.5" style="stroke:#000000;stroke-width:1;" width="535.642" x="2232.3034" y="1422.772"/><text fill="#000000" font-family="sans-serif" font-size="14" lengthAdjust="spacing" textLength="473.2262" x="2237.3034" y="1442.7379">This child view shows the current Dad/Johl affidavit lane as it exists now.</text><text fill="#000000" font-family="sans-serif" font-size="14" lengthAdjust="spacing" textLength="371.9785" x="2237.3034" y="1461.8058">Working surface: SQLite-first persisted contested review.</text><text fill="#000000" font-family="sans-serif" font-size="14" lengthAdjust="spacing" textLength="525.642" x="2237.3034" y="1480.8738">JSON/markdown affidavit artifacts are derived exports, not the primary runtime.</text></g><?plantuml-src dLTRRzis57xNho2obmsOdAueYg4F0v9cw5gabyGT-X90e2NAvaAH6adPyOR-zts7f6wsqoqp_22Hvtxvpf6NNWbsnQlpTsQZs4LTouflfMVNN0ls_Ddpb_cp5_XdcRkNkkMMDsp5o_krDPskNXjbBDjjf1UJUxVXbTb9lMOrLsvwquAJhyNIxw7KYj9plLPJWj8qhT52-yT9Ab7pJldFui5VABdM3QYP4hMVq5nOQtRHkEzUXD-n4PV6Li8cefVXTygGRvDfu-U2VWw_B5DYBNJ5h5nlVCROvurqhDn8LR6j53k4oEmSynl1oivQyc180HzIe2W5t34yYWVfl8EwtGBIlXXxJ-5rdQrvALwnvSqrKf3NqZhFMc4Tg4K59xGNuSaAKakyxvOVFvmttDuZHNgYZ5il8GnAk1K8ifLRy8c7rbZlVYH7WxcjbM3UCzjfBnknoE1bz3NBKc3PsT9qjXJihVRyNfonlw6s5y_EuEX4xHjZrbI0fhpJYDzuKLbUGoMoV4On01TgSoOeHCiAXpmvSIXeT5rpQxc7Dyn5ir0QBiWa0RVWXzGXtUnirI5BnJg8AofJkcAGLGooYXJGTXyalO5QTqeCMLh848UYvNjbECwiQGfohEYqzExxnMBnGv129Vqx7MLV9y4SM_ArsGfBPvSaMzWOsOdEdKKL54CCONXaIDQEchuGeJrby7zWJjepi0z6VZ2suKh-9QQvJUKPpPpf6hNeWR58v8iXvnIF9t4stAF7z3fmlqylJvBWHCDHs6Kia6N_zYGPCLu5TFievZOS_4RlJpF6swxqdUKgMZEyGihNMOry6bh-LfG2zPbge-AUhxYZbWm8SQV7Mavcef7TYUFHC6gN4mIncOgXcQA2UKab99eqq4JiGLKb5sPklTMknGIG1a05CBrAeFInysr7iJqe_pyxOVUnvORs784W7qoz8Rev9YN918vt-j4UABO_BVvmHaVqmCD5ad1IsFi4ilyYq7KD8UgYgMBPLYU5JXgi4TwY9k_qf6JI6UH58V5r5ipNQT3STE3nUtP90noAZy9urRLAbXppn1gWVgawXC_sRONRMnpFMPQy4RdKfQperScL0dck1A-1jftlUPVnuXhd1_nWp9KfkM8xJ5EQRIsGNTWjf-mdvafS4mbv5SS1o_DV8lQoLwmMw7TsZf7bBOLin242bAm7-s_oJ0TccYk1ET8Jvu3HuAOTg9tI1ZpFHX9YY50BwjGmQGfCFHX8nZe9MjCvaIJC1KqQl0nni_lM05IohB_j3PmT33WuFHoHRNew1QePzOWyi_FKix1gBCMZfOFr7lVKGM902p3s-yHkljBCzKnR3JocfQ90hUHvc7ZviBlC7Q_-1qzi78fpD7uj3FNM7aK2UEb4g4iO2GkJ3yGM40LCCWBMP0KRrZf2dobBtqUJesbxp8xxmizetOmx9JFr2BbzQolQSWQDofYMIJTR3ca3_FM1DoqjrwcIdE2D2vji1GT2Mo8kVIOV_2lmvCTf1JkJbGkNvxvf-vpA4RIlBkFr4J0Ve38jaS60Gm_daxDtKvBvjFO7SC3kpxV2iPL0bLTXIPrK8vJoIaGNvkqrJDmW1QFYW0RV7WQ8fcIu3op7HANYiYa89q_SOMRXaJQo_ZlbcqHs9Rrzr9W8CSMme1pJ910ZOyFkSKmnBXIGWmHeB1b7H0hV6YYsOYCwYnfEgWuoj3BUcoOKuGpJ-nIPLcYsvYq5lfhF4vhaxl5viS6zYciRBwrnOVNF7IW39rLsV0kXTsmd_GOZXjMAUtWKETtHF5cC7lm3?></g></svg>