<?plantuml 1.2026.2?><svg xmlns="http://www.w3.org/2000/svg" xmlns:xlink="http://www.w3.org/1999/xlink" contentStyleType="text/css" data-diagram-type="DESCRIPTION" height="968px" preserveAspectRatio="none" style="width:1423px;height:968px;background:#FFFFFF;" version="1.1" viewBox="0 0 1423 968" width="1423px" zoomAndPan="magnify"><title>SensibLaw World-Model Metasystem 2026-04-04</title><defs/><g><g class="title" data-source-line="1"><text fill="#000000" font-family="Monospace" font-size="14" font-weight="bold" lengthAdjust="spacing" textLength="332.9047" x="538.3113" y="24.9659">SensibLaw&#160;World-Model&#160;Metasystem&#160;2026-04-04</text></g><!--cluster SOURCES--><g class="cluster" data-qualified-name="SOURCES" data-source-line="7" id="ent0002"><rect fill="none" height="93.07" rx="2.5" ry="2.5" style="stroke:#181818;stroke-width:1;" width="519" x="180" y="47.0679"/><text fill="#000000" font-family="Monospace" font-size="14" font-weight="bold" lengthAdjust="spacing" textLength="170.6174" x="354.1913" y="64.0339">External&#160;Source&#160;Families</text></g><!--cluster LANES--><g class="cluster" data-qualified-name="LANES" data-source-line="15" id="ent0008"><rect fill="none" height="93.06" rx="2.5" ry="2.5" style="stroke:#181818;stroke-width:1;" width="792" x="151" y="164.1379"/><text fill="#000000" font-family="Monospace" font-size="14" font-weight="bold" lengthAdjust="spacing" textLength="100.7996" x="496.6002" y="181.1039">Lane&#160;Adapters</text></g><!--cluster SUBSTRATE--><g class="cluster" data-qualified-name="SUBSTRATE" data-source-line="22" id="ent0013"><rect fill="none" height="543.92" rx="2.5" ry="2.5" style="stroke:#181818;stroke-width:1;" width="266" x="275" y="293.7879"/><text fill="#000000" font-family="Monospace" font-size="14" font-weight="bold" lengthAdjust="spacing" textLength="213.1632" x="301.4184" y="310.7539">Shared&#160;World-Model&#160;Substrate</text></g><!--cluster OUTPUTS--><g class="cluster" data-qualified-name="OUTPUTS" data-source-line="30" id="ent0019"><rect fill="none" height="93.07" rx="2.5" ry="2.5" style="stroke:#181818;stroke-width:1;" width="732" x="7" y="869.7079"/><text fill="#000000" font-family="Monospace" font-size="14" font-weight="bold" lengthAdjust="spacing" textLength="128.7435" x="308.6283" y="886.6739">Governed&#160;Outputs</text></g><!--entity WIKIDATA--><g class="entity" data-qualified-name="SOURCES.WIKIDATA" data-source-line="8" id="ent0003"><rect fill="#F1F1F1" height="39.0679" rx="2.5" ry="2.5" style="stroke:#181818;stroke-width:0.5;" width="77.0918" x="349.45" y="85.0679"/><text fill="#000000" font-family="Monospace" font-size="14" lengthAdjust="spacing" textLength="57.0918" x="359.45" y="110.0339">Wikidata</text></g><!--entity AU--><g class="entity" data-qualified-name="SOURCES.AU" data-source-line="9" id="ent0004"><rect fill="#F1F1F1" height="39.0679" rx="2.5" ry="2.5" style="stroke:#181818;stroke-width:0.5;" width="39.1799" x="643.41" y="85.0679"/><text fill="#000000" font-family="Monospace" font-size="14" lengthAdjust="spacing" textLength="19.1799" x="653.41" y="110.0339">AU</text></g><!--entity GWB--><g class="entity" data-qualified-name="SOURCES.GWB" data-source-line="10" id="ent0005"><rect fill="#F1F1F1" height="39.0679" rx="2.5" ry="2.5" style="stroke:#181818;stroke-width:0.5;" width="52.3119" x="555.84" y="85.0679"/><text fill="#000000" font-family="Monospace" font-size="14" lengthAdjust="spacing" textLength="32.3119" x="565.84" y="110.0339">GWB</text></g><!--entity BREXIT--><g class="entity" data-qualified-name="SOURCES.BREXIT" data-source-line="11" id="ent0006"><rect fill="#F1F1F1" height="39.0679" rx="2.5" ry="2.5" style="stroke:#181818;stroke-width:0.5;" width="58.8499" x="461.58" y="85.0679"/><text fill="#000000" font-family="Monospace" font-size="14" lengthAdjust="spacing" textLength="38.8499" x="471.58" y="110.0339">Brexit</text></g><!--entity FUTURE--><g class="entity" data-qualified-name="SOURCES.FUTURE" data-source-line="12" id="ent0007"><rect fill="#F1F1F1" height="39.0679" rx="2.5" ry="2.5" style="stroke:#181818;stroke-width:0.5;" width="118.8536" x="195.57" y="85.0679"/><text fill="#000000" font-family="Monospace" font-size="14" lengthAdjust="spacing" textLength="98.8536" x="205.57" y="110.0339">Future&#160;Sources</text></g><!--entity NAT--><g class="entity" data-qualified-name="LANES.NAT" data-source-line="16" id="ent0009"><rect fill="#F1F1F1" height="39.0679" rx="2.5" ry="2.5" style="stroke:#181818;stroke-width:0.5;" width="78.9258" x="358.54" y="202.1379"/><text fill="#000000" font-family="Monospace" font-size="14" lengthAdjust="spacing" textLength="58.9258" x="368.54" y="227.1039">Nat&#160;Lane</text></g><!--entity ASSIST--><g class="entity" data-qualified-name="LANES.ASSIST" data-source-line="17" id="ent0010"><rect fill="#F1F1F1" height="39.0679" rx="2.5" ry="2.5" style="stroke:#181818;stroke-width:0.5;" width="165.5014" x="472.25" y="202.1379"/><text fill="#000000" font-family="Monospace" font-size="14" lengthAdjust="spacing" textLength="145.5014" x="482.25" y="227.1039">Assist&#160;/&#160;Reviewer&#160;Lane</text></g><!--entity AFFIDAVIT--><g class="entity" data-qualified-name="LANES.AFFIDAVIT" data-source-line="18" id="ent0011"><rect fill="#F1F1F1" height="39.0679" rx="2.5" ry="2.5" style="stroke:#181818;stroke-width:0.5;" width="254.7091" x="672.65" y="202.1379"/><text fill="#000000" font-family="Monospace" font-size="14" lengthAdjust="spacing" textLength="234.7091" x="682.65" y="227.1039">Affidavit&#160;/&#160;Contested&#160;Narrative&#160;Lane</text></g><!--entity OTHER--><g class="entity" data-qualified-name="LANES.OTHER" data-source-line="19" id="ent0012"><rect fill="#F1F1F1" height="39.0679" rx="2.5" ry="2.5" style="stroke:#181818;stroke-width:0.5;" width="156.7935" x="166.6" y="202.1379"/><text fill="#000000" font-family="Monospace" font-size="14" lengthAdjust="spacing" textLength="136.7935" x="176.6" y="227.1039">Other&#160;Lane&#160;Adapters</text></g><!--entity CLAIM--><g class="entity" data-qualified-name="SUBSTRATE.CLAIM" data-source-line="23" id="ent0014"><rect fill="#F1F1F1" height="39.0679" rx="2.5" ry="2.5" style="stroke:#181818;stroke-width:0.5;" width="198.4993" x="298.75" y="339.7879"/><text fill="#000000" font-family="Monospace" font-size="14" lengthAdjust="spacing" textLength="178.4993" x="308.75" y="364.7539">Cross-Domain&#160;Claim&#160;Model</text></g><!--entity CONVERGENCE--><g class="entity" data-qualified-name="SUBSTRATE.CONVERGENCE" data-source-line="24" id="ent0015"><rect fill="#F1F1F1" height="39.0679" rx="2.5" ry="2.5" style="stroke:#181818;stroke-width:0.5;" width="193.5153" x="302.24" y="477.4379"/><text fill="#000000" font-family="Monospace" font-size="14" lengthAdjust="spacing" textLength="173.5153" x="312.24" y="502.4039">Multi-Source&#160;Convergence</text></g><!--entity TEMPORAL--><g class="entity" data-qualified-name="SUBSTRATE.TEMPORAL" data-source-line="25" id="ent0016"><rect fill="#F1F1F1" height="39.0679" rx="2.5" ry="2.5" style="stroke:#181818;stroke-width:0.5;" width="201.8873" x="299.06" y="576.5079"/><text fill="#000000" font-family="Monospace" font-size="14" lengthAdjust="spacing" textLength="181.8873" x="309.06" y="601.4739">Temporal&#160;Update&#160;Discipline</text></g><!--entity CONFLICT--><g class="entity" data-qualified-name="SUBSTRATE.CONFLICT" data-source-line="26" id="ent0017"><rect fill="#F1F1F1" height="39.0679" rx="2.5" ry="2.5" style="stroke:#181818;stroke-width:0.5;" width="201.2853" x="299.36" y="675.5779"/><text fill="#000000" font-family="Monospace" font-size="14" lengthAdjust="spacing" textLength="181.2853" x="309.36" y="700.5439">Contradiction&#160;Management</text></g><!--entity POLICY--><g class="entity" data-qualified-name="SUBSTRATE.POLICY" data-source-line="27" id="ent0018"><rect fill="#F1F1F1" height="39.0679" rx="2.5" ry="2.5" style="stroke:#181818;stroke-width:0.5;" width="154.1895" x="310.91" y="774.6379"/><text fill="#000000" font-family="Monospace" font-size="14" lengthAdjust="spacing" textLength="134.1895" x="320.91" y="799.6039">Unified&#160;Action&#160;Policy</text></g><!--entity REVIEW--><g class="entity" data-qualified-name="OUTPUTS.REVIEW" data-source-line="31" id="ent0020"><rect fill="#F1F1F1" height="39.0679" rx="2.5" ry="2.5" style="stroke:#181818;stroke-width:0.5;" width="190.4913" x="532.75" y="907.7079"/><text fill="#000000" font-family="Monospace" font-size="14" lengthAdjust="spacing" textLength="170.4913" x="542.75" y="932.6739">Review&#160;/&#160;Handoff&#160;Artifacts</text></g><!--entity GATES--><g class="entity" data-qualified-name="OUTPUTS.GATES" data-source-line="32" id="ent0021"><rect fill="#F1F1F1" height="39.0679" rx="2.5" ry="2.5" style="stroke:#181818;stroke-width:0.5;" width="254.8491" x="242.58" y="907.7079"/><text fill="#000000" font-family="Monospace" font-size="14" lengthAdjust="spacing" textLength="234.8491" x="252.58" y="932.6739">Execution&#160;/&#160;Recommendation&#160;Gates</text></g><!--entity AUDIT--><g class="entity" data-qualified-name="OUTPUTS.AUDIT" data-source-line="33" id="ent0022"><rect fill="#F1F1F1" height="39.0679" rx="2.5" ry="2.5" style="stroke:#181818;stroke-width:0.5;" width="184.5414" x="22.73" y="907.7079"/><text fill="#000000" font-family="Monospace" font-size="14" lengthAdjust="spacing" textLength="164.5414" x="32.73" y="932.6739">Audit&#160;/&#160;Provenance&#160;Trace</text></g><g class="entity" data-qualified-name="GMN40" data-source-line="58" id="ent0041"><path d="M1075.48,327.7579 L1075.48,390.876 L1416.5272,390.876 L1416.5272,337.7579 L1406.5272,327.7579 L1075.48,327.7579" fill="#FEFFDD" style="stroke:#181818;stroke-width:0.5;"/><path d="M1406.5272,327.7579 L1406.5272,337.7579 L1416.5272,337.7579 L1406.5272,327.7579" fill="#FEFFDD" style="stroke:#181818;stroke-width:1;"/><text fill="#000000" font-family="Monospace" font-size="13" lengthAdjust="spacing" textLength="291.8112" x="1081.48" y="346.6549">One&#160;normalized&#160;process&#160;is&#160;now&#160;defined&#160;in&#160;code:</text><text fill="#000000" font-family="Monospace" font-size="13" lengthAdjust="spacing" textLength="320.0472" x="1081.48" y="364.3609">claim&#160;-&gt;&#160;convergence&#160;-&gt;&#160;temporal&#160;-&gt;&#160;conflict&#160;-&gt;&#160;policy</text><text fill="#000000" font-family="Monospace" font-size="13" lengthAdjust="spacing" textLength="192.1402" x="1081.48" y="382.067">Lane&#160;rebinding&#160;is&#160;the&#160;next&#160;step.</text></g><g class="entity" data-qualified-name="GMN43" data-source-line="64" id="ent0044"><path d="M663.26,301.1979 L663.26,417.434 A0,0 0 0 0 663.26,417.434 L1040.7463,417.434 A0,0 0 0 0 1040.7463,417.434 L1040.7463,311.1979 L1030.7463,301.1979 L833.99,301.1979 L807.23,241.5279 L825.99,301.1979 L663.26,301.1979 A0,0 0 0 0 663.26,301.1979" fill="#FEFFDD" style="stroke:#181818;stroke-width:0.5;"/><path d="M1030.7463,301.1979 L1030.7463,311.1979 L1040.7463,311.1979 L1030.7463,301.1979" fill="#FEFFDD" style="stroke:#181818;stroke-width:0.5;"/><text fill="#000000" font-family="Monospace" font-size="13" lengthAdjust="spacing" textLength="125.3721" x="669.26" y="320.0949">Dad/Johl&#160;child&#160;views:</text><text fill="#000000" font-family="Monospace" font-size="13" lengthAdjust="spacing" textLength="246.5972" x="669.26" y="337.8009">-&#160;affidavit_dad_johl_lane_20260404.puml</text><text fill="#000000" font-family="Monospace" font-size="13" lengthAdjust="spacing" textLength="355.6283" x="669.26" y="355.507">-&#160;affidavit_dad_johl_claim_root_arbitration_20260405.puml</text><text fill="#000000" font-family="Monospace" font-size="13" lengthAdjust="spacing" textLength="84.1491" x="669.26" y="373.213">Current&#160;state:</text><text fill="#000000" font-family="Monospace" font-size="13" lengthAdjust="spacing" textLength="356.4863" x="669.26" y="390.919">-&#160;normalized&#160;affidavit&#160;facade&#160;and&#160;review&#160;geometry&#160;are&#160;real</text><text fill="#000000" font-family="Monospace" font-size="13" lengthAdjust="spacing" textLength="272.6363" x="669.26" y="408.625">-&#160;full&#160;claim-model&#160;rebinding&#160;is&#160;not&#160;yet&#160;landed</text></g><!--link WIKIDATA to NAT--><g class="link" data-entity-1="ent0003" data-entity-2="ent0009" data-link-type="dependency" data-source-line="36" id="lnk23"><path d="M389.65,124.5979 C391.5,145.9179 393.9688,174.3306 395.8288,195.6606" fill="none" id="WIKIDATA-to-NAT" style="stroke:#181818;stroke-width:1;"/><polygon fill="#181818" points="396.35,201.6379,399.553,192.3245,395.9156,196.6568,391.5833,193.0194,396.35,201.6379" style="stroke:#181818;stroke-width:1;"/></g><!--link AU to ASSIST--><g class="link" data-entity-1="ent0004" data-entity-2="ent0010" data-link-type="dependency" data-source-line="37" id="lnk24"><path d="M647.02,124.4479 C640.59,131.9079 633.04,140.5079 626,148.1379 C608.79,166.7779 592.7226,183.1553 578.2426,197.6353" fill="none" id="AU-to-ASSIST" style="stroke:#181818;stroke-width:1;"/><polygon fill="#181818" points="574,201.8779,583.1924,198.3424,577.5355,198.3424,577.5355,192.6855,574,201.8779" style="stroke:#181818;stroke-width:1;"/></g><!--link GWB to ASSIST--><g class="link" data-entity-1="ent0005" data-entity-2="ent0010" data-link-type="dependency" data-source-line="38" id="lnk25"><path d="M577.54,124.5979 C572.54,145.9179 565.8394,174.4663 560.8394,195.7963" fill="none" id="GWB-to-ASSIST" style="stroke:#181818;stroke-width:1;"/><polygon fill="#181818" points="559.47,201.6379,565.4185,193.7883,560.6111,196.7699,557.6296,191.9625,559.47,201.6379" style="stroke:#181818;stroke-width:1;"/></g><!--link BREXIT to ASSIST--><g class="link" data-entity-1="ent0006" data-entity-2="ent0010" data-link-type="dependency" data-source-line="39" id="lnk26"><path d="M501.57,124.5979 C513.43,145.9179 529.6324,175.0651 541.5024,196.3951" fill="none" id="BREXIT-to-ASSIST" style="stroke:#181818;stroke-width:1;"/><polygon fill="#181818" points="544.42,201.6379,543.5388,191.8286,541.9887,197.2689,536.5483,195.7187,544.42,201.6379" style="stroke:#181818;stroke-width:1;"/></g><!--link AU to AFFIDAVIT--><g class="link" data-entity-1="ent0004" data-entity-2="ent0011" data-link-type="dependency" data-source-line="40" id="lnk27"><path d="M682.92,122.3279 C708.15,143.5279 746.9053,176.0793 773.1853,198.1493" fill="none" id="AU-to-AFFIDAVIT" style="stroke:#181818;stroke-width:1;"/><polygon fill="#181818" points="777.78,202.0079,773.4604,193.1569,773.9511,198.7924,768.3156,199.2831,777.78,202.0079" style="stroke:#181818;stroke-width:1;"/></g><!--link FUTURE to OTHER--><g class="link" data-entity-1="ent0007" data-entity-2="ent0012" data-link-type="dependency" data-source-line="41" id="lnk28"><path d="M253.35,124.5979 C251.5,145.9179 249.0312,174.3306 247.1712,195.6606" fill="none" id="FUTURE-to-OTHER" style="stroke:#181818;stroke-width:1;"/><polygon fill="#181818" points="246.65,201.6379,251.4167,193.0194,247.0844,196.6568,243.447,192.3245,246.65,201.6379" style="stroke:#181818;stroke-width:1;"/></g><!--link NAT to CLAIM--><g class="link" data-entity-1="ent0009" data-entity-2="ent0014" data-link-type="dependency" data-source-line="43" id="lnk29"><path d="M398,241.5279 C398,267.4479 398,307.7879 398,333.6179" fill="none" id="NAT-to-CLAIM" style="stroke:#181818;stroke-width:1;"/><polygon fill="#181818" points="398,339.6179,402,330.6179,398,334.6179,394,330.6179,398,339.6179" style="stroke:#181818;stroke-width:1;"/></g><!--link ASSIST to CLAIM--><g class="link" data-entity-1="ent0010" data-entity-2="ent0014" data-link-type="dependency" data-source-line="44" id="lnk30"><path d="M533.17,241.5279 C503.26,267.3779 454.38,309.6051 424.44,335.4751" fill="none" id="ASSIST-to-CLAIM" style="stroke:#181818;stroke-width:1;"/><polygon fill="#181818" points="419.9,339.3979,429.3252,336.5403,423.6833,336.1289,424.0948,330.487,419.9,339.3979" style="stroke:#181818;stroke-width:1;"/></g><!--link OTHER to CLAIM--><g class="link" data-entity-1="ent0012" data-entity-2="ent0014" data-link-type="dependency" data-source-line="45" id="lnk31"><path d="M266.27,241.5279 C295.51,267.4479 343.28,309.808 372.42,335.638" fill="none" id="OTHER-to-CLAIM" style="stroke:#181818;stroke-width:1;"/><polygon fill="#181818" points="376.91,339.6179,372.8283,330.6547,373.1684,336.3013,367.5217,336.6413,376.91,339.6179" style="stroke:#181818;stroke-width:1;"/></g><!--link AFFIDAVIT to REVIEW--><g class="link" data-entity-1="ent0011" data-entity-2="ent0020" data-link-type="dependency" data-source-line="46" id="lnk32"><path d="M698.77,241.6779 C678.76,249.7779 659.73,261.3279 646,277.7879 C583.04,353.2579 610,397.6879 610,495.9679 C610,495.9679 610,495.9679 610,696.1079 C610,774.8579 619.8624,862.3547 624.7824,901.5347" fill="none" id="AFFIDAVIT-to-REVIEW" style="stroke:#181818;stroke-width:1;"/><polygon fill="#181818" points="625.53,907.4879,628.3775,898.0597,624.907,902.5269,620.4398,899.0564,625.53,907.4879" style="stroke:#181818;stroke-width:1;"/></g><!--link CLAIM to CONVERGENCE--><g class="link" data-entity-1="ent0014" data-entity-2="ent0015" data-link-type="dependency" data-source-line="48" id="lnk33"><path d="M398.14,379.1779 C398.33,405.0979 398.6259,445.4381 398.8159,471.2681" fill="none" id="CLAIM-to-CONVERGENCE" style="stroke:#181818;stroke-width:1;"/><polygon fill="#181818" points="398.86,477.2679,402.7937,468.2387,398.8232,472.2681,394.7939,468.2976,398.86,477.2679" style="stroke:#181818;stroke-width:1;"/></g><!--link CONVERGENCE to TEMPORAL--><g class="link" data-entity-1="ent0015" data-entity-2="ent0016" data-link-type="dependency" data-source-line="49" id="lnk34"><path d="M399.19,516.6879 C399.37,533.7679 399.5706,552.8882 399.7406,570.0482" fill="none" id="CONVERGENCE-to-TEMPORAL" style="stroke:#181818;stroke-width:1;"/><polygon fill="#181818" points="399.8,576.0479,403.7106,567.0087,399.7505,571.0482,395.711,567.088,399.8,576.0479" style="stroke:#181818;stroke-width:1;"/></g><!--link TEMPORAL to CONFLICT--><g class="link" data-entity-1="ent0016" data-entity-2="ent0017" data-link-type="dependency" data-source-line="50" id="lnk35"><path d="M400,615.7579 C400,632.8379 400,651.9579 400,669.1179" fill="none" id="TEMPORAL-to-CONFLICT" style="stroke:#181818;stroke-width:1;"/><polygon fill="#181818" points="400,675.1179,404,666.1179,400,670.1179,396,666.1179,400,675.1179" style="stroke:#181818;stroke-width:1;"/></g><!--link CONFLICT to POLICY--><g class="link" data-entity-1="ent0017" data-entity-2="ent0018" data-link-type="dependency" data-source-line="51" id="lnk36"><path d="M397.69,714.8279 C395.57,731.8979 393.2057,751.0732 391.0857,768.2332" fill="none" id="CONFLICT-to-POLICY" style="stroke:#181818;stroke-width:1;"/><polygon fill="#181818" points="390.35,774.1879,395.4233,765.7463,390.9631,769.2256,387.4837,764.7654,390.35,774.1879" style="stroke:#181818;stroke-width:1;"/></g><!--link POLICY to REVIEW--><g class="link" data-entity-1="ent0018" data-entity-2="ent0020" data-link-type="dependency" data-source-line="53" id="lnk37"><path d="M425.14,814.1879 C450.57,827.3079 484.98,845.2779 515,861.7079 C542.35,876.6779 567.8584,891.2501 590.3484,904.2801" fill="none" id="POLICY-to-REVIEW" style="stroke:#181818;stroke-width:1;"/><polygon fill="#181818" points="595.54,907.2879,589.7578,899.3151,591.2137,904.7814,585.7473,906.2372,595.54,907.2879" style="stroke:#181818;stroke-width:1;"/></g><!--link POLICY to GATES--><g class="link" data-entity-1="ent0018" data-entity-2="ent0021" data-link-type="dependency" data-source-line="54" id="lnk38"><path d="M385.42,813.9579 C382,838.8679 376.8064,876.6537 373.3864,901.5537" fill="none" id="POLICY-to-GATES" style="stroke:#181818;stroke-width:1;"/><polygon fill="#181818" points="372.57,907.4979,377.7574,899.1259,373.2504,902.5444,369.8319,898.0373,372.57,907.4979" style="stroke:#181818;stroke-width:1;"/></g><!--link POLICY to AUDIT--><g class="link" data-entity-1="ent0018" data-entity-2="ent0022" data-link-type="dependency" data-source-line="55" id="lnk39"><path d="M336.14,814.1579 C303.7,826.5679 261.31,843.7679 225,861.7079 C197.01,875.5479 171.5866,890.5518 149.8066,904.0818" fill="none" id="POLICY-to-AUDIT" style="stroke:#181818;stroke-width:1;"/><polygon fill="#181818" points="144.71,907.2479,154.4657,905.8965,148.9572,904.6095,150.2442,899.101,144.71,907.2479" style="stroke:#181818;stroke-width:1;"/></g><!--link SUBSTRATE to GMN40--><g class="link" data-entity-1="ent0013" data-entity-2="ent0041" data-link-type="association" data-source-line="58" id="lnk42"><path d="M541.2318,349.9462 C541.4128,349.7493 541.5965,349.5499 541.7829,349.3481 C543.2744,347.7334 544.9411,345.9615 546.7714,344.0618 C554.0928,336.4632 564.0331,326.821 575.8563,317.0242 C599.5025,297.4304 630.68,277.2179 663.5,271.4979 C704.77,264.2979 999.23,264.2979 1040.5,271.4979 C1094.01,280.8179 1150.45,306.2179 1190.62,327.3079" fill="none" id="SUBSTRATE-GMN40" style="stroke:#181818;stroke-width:1;stroke-dasharray:7,7;"/></g><?plantuml-src RLLDZ-Cs3BtxLn1pp-vWCUrX3mKyZfDDco_uOzAU0iQM4tLjoP3acKaN_U-b97jYPmiOi4m-YkJJesougHcaJ6X-MkCR7AIgozb6bgo63JEehzgm1huyVlbrzlX4Jn3exroqgB21GZQj54oOr5nf5yKAW-9Sin54Nx2KRroSeS9QZpqbgx2hpK8AiyM6mKOAgLiiM11yR0GFyRjXIc0DgUnKmM213Qyvqm-06j9TdaHn2Zy2kDK23mV-dPTeq64EgpzMyp0Bfv0mTyumdvgNXsTdf_VKyQpOEpVEzvp4VwwogNlHcKwnlaPVsoBFyYGE_frqiqR182onfQOyR1rkVsvWYmOir26suLsoK6kk3No6XBroziRK3HkcwIgzXrSLiV7ARKH4P3Cwq1Asg1GQ_if6mOi5CVLotzlENFeKqyftsRSukUillQ2YpSSYIhkJDfJAvqZpvpHBmYo-RpbIKklPN3R81KGryWPSl8kArk5gCyLlI3fyrek2sdfbwin4uRD4k-rBd2pZRHHFep96IqLgobiI28CvrmLlQzupaCMR_Iu9rtUb4MaAIruOBWLiKE2PDUGPKYtMg-YEirpmYXCHeO_PoveNLuVVxmZzrnrjIqdb2yBlEjDsfkStp_PvzfCs_A7JMNv3KSggWb0PNc7HHoNnooe-J4FYTrPqhX2h6N9GzTI-DIo91H-uf4D9xvJJbKurUqNr2IHs8LFOSnpcSr8AzJ4C6CnclpcnXhbRzbgaKHf_-kaPMmRuX_hyv3YZrrX0kxfFhmCVDp8ur1WmRELiFIE1ytdKI1wZjVDzI61O317-b8U5i_Pd6VZtEDd8udaT6JnnWP2aFyNF5mEokir5iACv4r8rMFD_I16jadIZQE2Qh6_sqkHMA3Ga1Ot7rw1meqBR5hSPi9zcKBftLIH0OzUjasBWnbcn4nUblPjfTvfo4EpT05qFxQU050AsnBxGapH6DhRIspdDiVpykxpKK5nuNOALfVuQp0272-TOOddycn37cj8TxJ_ayUdnwLFRDVN_urmtHoMbEQ8wSNjla4g7o5zyPDGfPVMf3OdN9XpHzR4d_MuAB1dGa52VRcJEJ3RCg2lG7KKsj3LKNKtrswopnbrN4qweTRWo0rH-oSeR9_y1?></g></svg>